PathFileType	4	(X/Y/Z)	pose_F01_0-70.trc
DataRate	CameraRate	NumFrames	NumMarkers	Units	OrigDataRate	OrigDataStartFrame	OrigNumFrames
30	30	10	21	m	30	17	70
Frame#	Time	CHip			RHip			RKnee			RAnkle			RBigToe			RSmallToe			RHeel			LHip			LKnee			LAnkle			LBigToe			LSmallToe			LHeel			Neck			Nose			RShoulder			RElbow			RWrist			LShoulder			LElbow			LWrist			
		X1	Y1	Z1	X2	Y2	Z2	X3	Y3	Z3	X4	Y4	Z4	X5	Y5	Z5	X6	Y6	Z6	X7	Y7	Z7	X8	Y8	Z8	X9	Y9	Z9	X10	Y10	Z10	X11	Y11	Z11	X12	Y12	Z12	X13	Y13	Z13	X14	Y14	Z14	X15	Y15	Z15	X16	Y16	Z16	X17	Y17	Z17	X18	Y18	Z18	X19	Y19	Z19	X20	Y20	Z20	X21	Y21	Z21	
17	0.5666666666666667	-0.2610322254392494	1.8338839334485393	-0.5917141415402265	-0.27229751718653367	1.8295718159100878	-0.5277980052034753																-0.24993889480050738	1.8368583279162716	-0.6583983002673353	-0.25434865556785125	1.7103745170169207	-0.6133473953046548													-0.2670969298882395	1.9862266238827258	-0.5967257706724655	-0.2517706784834662	2.054116275618009	-0.5720781458029909	-0.2841094496562469	1.9792229119793239	-0.5020445735008298	-0.28681164059888886	1.9012735481324956	-0.4677125569822413	-0.2561553298541085	1.93015179480449	-0.5571407700755782	-0.24826831320821022	1.9936276857777762	-0.6942110026523102	-1.2362285865372464	1.8196658211853929	0.25533611534742945	-1.3957630984547806	1.8455840760672642	0.5586391146455418
18	0.6	-0.2604457123468225	1.834490521380276	-0.6177382476115945	-0.26917733208650335	1.8318150525413166	-0.5530609770091882																-0.2436185623482426	1.8383595724011574	-0.685445092780409	-0.25434865556785125	1.7103745170169207	-0.6133473953046548													-0.2624883128354048	1.9852528985088231	-0.626382747886628	-0.24735914311491203	2.0527119409869554	-0.5929747175612444	-0.27939608223127405	1.9789485017762038	-0.5288441094307736	-0.28532285250565054	1.9025998093597498	-0.48744554528553674	-0.25176613351970095	1.9249012657020461	-0.5773517383238118	-0.24099624769754657	1.992037435728627	-0.7174224656270523	-1.1976153057936245	1.8208153210227558	0.184923490570135	-1.3499424782433294	1.8430953248345576	0.4765865745265078
19	0.6333333333333333	-0.25684603371070003	1.8335884623695395	-0.6424569588766719	-0.27005185373385404	1.8298654154863188	-0.5735230555112312																-0.2438371537650224	1.8366816510358452	-0.7055185134540863	-0.25434865556785125	1.7103745170169207	-0.6133473953046548													-0.26195655452998723	1.988271038104686	-0.6436130570221119	-0.2478040846401822	2.053322730964125	-0.6128839089920646	-0.2792603057778691	1.9794566060104242	-0.5459147844134463	-0.28335813746052774	1.9012758652754138	-0.5067476523248038	-0.25307174995747894	1.9261212475697556	-0.6009796195411116	-0.2417956162846385	1.994726906431835	-0.7404046369919723	-1.1754757384029664	1.8178746281298397	0.14200298743953704	-1.2942528456249356	1.8336526285218517	0.37901075398031564
20	0.6666666666666666	-0.2541079946976311	1.837356547888281	-0.653950568399978	-0.2683831970606973	1.833839534257875	-0.5881931046738087																-0.24390120213753297	1.840338370438982	-0.7178220123805513	-0.25434865556785125	1.7103745170169207	-0.6133473953046548													-0.26132542674672704	1.9892466014558314	-0.6604569189786114	-0.24434678079953287	2.056037220257171	-0.6291522636278196	-0.2790064104555044	1.981861126993502	-0.5628586396422435	-0.28528630452743226	1.9038978940332836	-0.5223629685564933	-0.24521825133770103	1.9286338536955767	-0.621784179505035	-0.23992260823056458	1.9966399290049384	-0.7544454926372293	-1.1551835437618623	1.8201369801513299	0.10220015246755902	-1.269508946648194	1.8309340117260022	0.33714055241570096
21	0.7	-0.25602521399428935	1.8413381587040842	-0.6606463268044896	-0.2682104543788356	1.8388280166502666	-0.597444742789444																-0.24656853197724232	1.842763166241553	-0.7275351218221667	-0.25434865556785125	1.7103745170169207	-0.6133473953046548													-0.2601158468781913	1.990527808526115	-0.6664151561072597	-0.24370364908565753	2.058115636796491	-0.6462022561055473	-0.27878972198572005	1.984478496476482	-0.5718522891018739	-0.2840579189363374	1.9044070767934498	-0.5361700704382102	-1.4132538597135436	1.8428298386794324	0.5718500487204403	-0.2380287570883014	1.9983080687463033	-0.7682897796401778	-1.1408098992734297	1.821025334965003	0.0777750776823035	-1.2616110926313204	1.835197611988664	0.31960517604294525
22	0.7333333333333333	-0.2587285710341466	1.842399332425216	-0.6701770471780917	-0.2700648735776633	1.8382842957369705	-0.6040952397693228																-0.2452411046996377	1.8431302387583435	-0.7330030762156079	-0.25434865556785125	1.7103745170169207	-0.6133473953046548													-0.25707225871591577	1.9922247589320503	-0.6849444337561382	-0.24313963561584065	2.0587558062806806	-0.6628218796540492	-0.2756329327635489	1.986472791738967	-0.5881024648108469	-0.285020050349409	1.9076582136619773	-0.5482173527613647	-0.2513801164959227	1.9272172062323838	-0.6413113311820804	-0.23592863944549727	1.9972094926818493	-0.7813565038377399	-1.1190476305167236	1.8173389666606492	0.04028059137877294	-1.2419942546705485	1.831293998553035	0.2821763480301107
23	0.7666666666666667	-0.25716438613117926	1.8419778989471078	-0.6757872247190088	-0.2665582087775611	1.8388789337536031	-0.6117608096673658																-0.2436214177152813	1.8413597246059563	-0.7382730698728717	-0.25434865556785125	1.7103745170169207	-0.6133473953046548													-0.2567812498164319	1.9897679466185014	-0.6928178999326914	-0.2419254361303075	2.057677375531918	-0.6676128804339841	-0.2743628890346804	1.9856929380407906	-0.5931600672930385	-0.28608982889786067	1.9068514661657092	-0.5513895543112217	-0.2509846867380086	1.9270344318715904	-0.6409395282334167	-0.23676401428548638	1.994514438554321	-0.7841987805356155	-1.1222317185773572	1.8166290915458128	0.04346640314649563	-1.2354718990251947	1.8312373222770237	0.27019218903903647
24	0.8	-0.25360496472332594	1.8400392046135856	-0.6834046757365442	-0.2652214142564613	1.838810980065969	-0.6171967915804671																-0.23988754502149037	1.840474231356034	-0.7458904692216018	-0.25434865556785125	1.7103745170169207	-0.6133473953046548													-0.2567862566774517	1.989318237703711	-0.6930711046943572	-0.24276366869099583	2.0589091295080895	-0.6712255468987598	-0.27345515643655777	1.9849393343507358	-0.5984023870943804	-0.28205512692983875	1.9067392067114461	-0.5558784474543643	-1.3741284872798025	1.8384830361271323	0.5015839694355184	-0.23458590033159998	1.994704119529589	-0.7863982405738573	-1.12284636431721	1.8164860198105128	0.04419981380794024	-1.2320923154444312	1.8329427652109664	0.26240511666036387
25	0.8333333333333334	-0.2566699563470258	1.8411180323298801	-0.6843613416159329	-0.266272824749242	1.840280746957132	-0.6203403133711775																-0.2398315939617914	1.8427219285484127	-0.746226318160268	-0.25434865556785125	1.7103745170169207	-0.6133473953046548													-0.25771968211108676	1.9918027007737866	-0.6967933033200817	-0.24160206810320942	2.057719332266821	-0.6759284691516809	-0.27445940766561244	1.9864218770276845	-0.6020008404169711	-0.28296905882066975	1.906343949313541	-0.5591993151466763	-1.3672974595587566	1.8385306213296808	0.4887765950315845	-0.23545538909450675	1.9972535430874594	-0.7901272056608306	-1.1137186191723527	1.8196121398227958	0.025246682116481702	-1.2274218399768966	1.8354237659275647	0.2524109692057509
26	0.8666666666666667	-0.25460843156267454	1.8418219681757866	-0.6865573931244342	-0.2663038515013743	1.8407677663605193	-0.6203557781754476																-0.24099024000252275	1.8439202406163533	-0.7491690169950165	-0.25434865556785125	1.7103745170169207	-0.6133473953046548													-0.2555676869881582	1.9906294103015552	-0.6987312584898137	-0.24165278118361896	2.056846669270472	-0.6760683363735502	-0.27521101117045477	1.9876232420720474	-0.6051853707513677	-0.2820372393078904	1.907683637627122	-0.5645756083631522	-1.374110385355478	1.8384017516426892	0.5015990691899874	-0.23616835944591974	1.9961338584563908	-0.7928094970135208	-1.1086549760199844	1.818644933571906	0.015819228418062783	-1.2190054158068526	1.833426390324643	0.23840922172494458
